<svg version="1.1" class="zington_logo" id="Lager_2" xmlns="http://www.w3.org/2000/svg" xmlns:xlink="http://www.w3.org/1999/xlink" x="0px" y="0px"
	 width="2556px" height="1080px" viewBox="0 0 2556 1080" style="enable-background:new 0 0 2556 1080;" xml:space="preserve">
<style type="text/css">
	.st0{fill:#BFDBF5;}
	.st1{fill:#211F57;}
</style>
<g>
	<g>
		
			<rect x="1338.8" y="299.2" transform="matrix(0.766 0.6428 -0.6428 0.766 542.6691 -799.1003)" class="st1" width="60.6" height="93.5"/>
		<path class="st1" d="M1386.8,505.1c-0.4,60.8-54.1,111.3-124.1,111.3c-20.7,0-30.9-5.9-42.9-8.1c-10.2-1.9-23,9.4-23,24.6
			c0,12.8,9.4,26.8,24.5,24.9c8.6-1,38.5-4,57.3-3.3c70.7,2.8,137.4,33.8,137.4,93.9c0,59.9-75.5,90.6-155.2,90.6
			c-79.1,0-143-37.1-143-88.8c0-28.6,18.9-49.9,44.4-63.3c-16.4-6.6-28.1-28-27.8-48.1c0.3-22.2,15.6-48.1,41.8-54.1
			c-20.7-18.2-37.1-45-37.1-79.7c0-60.8,54.1-110.7,123.5-110.7C1341.3,394.4,1387.1,455.5,1386.8,505.1z M1260.9,787.5
			c42,0,83.3-11,83.6-38c0.4-30.5-39.6-43.6-86.6-41.6c-38.9,1.7-71,16-71,39.7C1186.8,771.3,1218.9,787.5,1260.9,787.5z
			 M1262.7,561.7c30.4,0,54.7-25.5,54.7-56.6s-24.3-56-54.7-56c-30.4,0-54.7,24.9-54.7,56S1232.3,561.7,1262.7,561.7z"/>
	</g>
	<rect x="748.3" y="400.9" class="st1" width="65.3" height="276.7"/>
	<path class="st1" d="M923.8,677.6h-65.9V400.9h64.2v36.9c18.2-31.8,51.1-44.9,81.8-44.9c67.6,0,100,48.9,100,109.7v175H1038V513.9
		c0-34.1-15.3-61.4-56.8-61.4c-37.5,0-57.4,29-57.4,65.3V677.6z"/>
	<path class="st1" d="M1515.6,400.9h57.4v60.5h-57.4v126.4c0,24.4,10.8,34.7,35.2,34.7c9.1,0,19.9-1.7,22.7-2.3v54.5
		c-4,1.7-16.5,6.2-40.3,6.2c-51.1,0-82-30.7-82-82.4V461.4h-44.2v-60.5h43l0-93.5h65.5V400.9z"/>
	<path class="st1" d="M1876,538.9c0,85.2-60.8,147.2-143.8,147.2c-82.4,0-143.2-61.9-143.2-147.2c0-84.7,60.8-146.6,143.2-146.6
		C1815.2,392.3,1876,454.3,1876,538.9z M1809.5,538.9c0-57.4-36.4-86.9-77.3-86.9c-40.3,0-77.3,29.5-77.3,86.9s36.9,88.1,77.3,88.1
		C1773.1,627,1809.5,596.9,1809.5,538.9z"/>
	<path class="st1" d="M1973.4,677.6h-65.9V400.9h64.2v36.9c18.2-31.8,51.1-44.9,81.8-44.9c67.6,0,100,48.9,100,109.7v175h-65.9
		V513.9c0-34.1-15.3-61.4-56.8-61.4c-37.5,0-57.4,29-57.4,65.3V677.6z"/>
	<g>
		<polygon class="st1" points="484.5,612.6 548.1,536.8 496.3,493.3 402.5,605.1 402.5,677.4 713.7,677.4 713.7,612.6 		"/>
		<polygon class="st1" points="563,413.7 614.9,457.2 713.8,339.3 713.8,274.5 408.7,274.5 408.7,338.7 625.8,338.7 		"/>
	</g>
</g>
</svg>
